Coordinates
version=1
nRows=19
nColumns=24
inDegrees=yes

Units are S.I. units (second, meters, Newtons, ...)
Angles are in degrees.

endheader
time	pelvis_tilt	pelvis_list	pelvis_rotation	pelvis_tx	pelvis_ty	pelvis_tz	hip_flexion_r	hip_adduction_r	hip_rotation_r	knee_angle_r	ankle_angle_r	subtalar_angle_r	mtp_angle_r	hip_flexion_l	hip_adduction_l	hip_rotation_l	knee_angle_l	ankle_angle_l	subtalar_angle_l	mtp_angle_l	lumbar_extension	lumbar_bending	lumbar_rotation
      1.04583333	      2.23432095	     -4.28371535	     -2.34975205	     -0.16375979	      1.05586338	      0.35924580	    -16.73395748	      8.53746253	      0.24202457	     -3.87449201	      7.83605115	    -10.42285745	     -0.50895444	     18.18055880	     -2.20951198	     -1.65454707	      1.36209862	      3.23574308	     -3.19074710	     -4.63900590	      0.48373348	      8.21237240	      0.36965678
      1.05000000	      2.18451712	     -4.32932559	     -2.35698534	     -0.15827537	      1.05517469	      0.35894510	    -16.78831458	      8.55475209	      0.26744120	     -4.31742883	      7.82724306	    -10.45914648	     -0.50855968	     18.09766512	     -2.18997227	     -1.65305901	      1.64260227	      3.21328312	     -3.07485108	     -4.64238152	      0.50195183	      8.20653967	      0.35922601
      1.05416667	      2.15094596	     -4.29457420	     -2.34336212	     -0.15242483	      1.05455418	      0.35878203	    -16.90592298	      8.50319312	      0.37648436	     -4.69177732	      7.98104395	    -10.55575562	     -0.50352094	     17.98840149	     -2.09129974	     -1.89597797	      1.88668155	      2.83228061	     -2.59579105	     -4.66207637	      0.59192304	      8.17402744	      0.33281381
      1.05833333	      2.12614589	     -4.34077327	     -2.33388507	     -0.14690172	      1.05396113	      0.35854751	    -16.96203703	      8.53201176	      0.42319407	     -5.17989803	      7.96506618	    -10.59450817	     -0.50237631	     17.89776677	     -2.07983672	     -1.90431227	      2.00294628	      2.77517541	     -2.48701511	     -4.66415815	      0.63510516	      8.13961652	      0.32874317
      1.06250000	      2.09760557	     -4.34456257	     -2.33346081	     -0.14121597	      1.05341026	      0.35834106	    -17.01463339	      8.51282963	      0.47515140	     -5.68001519	      7.97373530	    -10.65240068	     -0.50063577	     17.79602386	     -2.02724352	     -1.92175249	      2.07489015	      2.61949723	     -2.34925260	     -4.66645724	      0.69646043	      8.10920552	      0.32243590
      1.06666667	      2.04667476	     -4.29233866	     -2.30968695	     -0.13531570	      1.05287818	      0.35819557	    -17.05661815	      8.44702659	      0.56409105	     -6.16706791	      8.06580672	    -10.78179450	     -0.49262853	     17.73401988	     -1.91542790	     -2.15983717	      2.07134198	      2.04613083	     -2.03013297	     -4.67050013	      0.77732571	      8.01275681	      0.30388114
      1.07083333	      2.01494156	     -4.29322066	     -2.30742500	     -0.12960931	      1.05240530	      0.35807096	    -17.07492249	      8.43032723	      0.66699476	     -6.72542408	      8.03837140	    -10.85245527	     -0.48111923	     17.66565777	     -1.87267119	     -2.29145277	      1.97500864	      1.74885450	     -1.85426871	     -4.65831553	      0.85893213	      7.94094819	      0.28715023
      1.07500000	      2.00656941	     -4.28129495	     -2.28568855	     -0.12387423	      1.05199631	      0.35787831	    -17.10048608	      8.39918376	      0.71808970	     -7.31530193	      8.00005740	    -10.88602564	     -0.47846428	     17.56051220	     -1.81117523	     -2.24799035	      1.83699674	      1.64627961	     -1.80626020	     -4.65472846	      0.92536931	      7.89063276	      0.29080800
      1.07916667	      1.94861033	     -4.22903606	     -2.25796442	     -0.11797071	      1.05157287	      0.35769495	    -17.05659739	      8.32849104	      0.67325450	     -7.94339938	      7.95898177	    -10.93556866	     -0.46339999	     17.51475877	     -1.70813287	     -2.34050044	      1.66165570	      1.09623024	     -1.74561699	     -4.63764389	      1.01238977	      7.76638512	      0.28691902
      1.08333333	      1.95869250	     -4.20478215	     -2.23792869	     -0.11219810	      1.05128591	      0.35752329	    -17.06419666	      8.27928716	      0.71438175	     -8.60454715	      7.90033821	    -10.94931024	     -0.45917013	     17.39283149	     -1.64557223	     -2.27988218	      1.42956573	      0.96587961	     -1.72633212	     -4.63182064	      1.08842463	      7.70196955	      0.29135975
      1.08750000	      1.91302762	     -4.13053850	     -2.18423687	     -0.10622774	      1.05096923	      0.35725850	    -16.98897967	      8.18089549	      0.55468771	     -9.30772384	      7.77326593	    -10.86416059	     -0.43120250	     17.33924796	     -1.51562806	     -2.33947610	      1.17642372	      0.28054930	     -1.83048835	     -4.59887648	      1.18029347	      7.55046390	      0.28164821
      1.09166667	      1.93220589	     -4.08462751	     -2.18337531	     -0.10041433	      1.05080675	      0.35710464	    -16.95902590	      8.09676460	      0.56341504	    -10.06032956	      7.69737895	    -10.86288263	     -0.42473721	     17.19810298	     -1.44533943	     -2.24891005	      0.89241434	      0.14730209	     -1.83500734	     -4.59024473	      1.24455410	      7.46825827	      0.28557401
      1.09583333	      1.83729443	     -3.95882467	     -2.13015132	     -0.09425465	      1.05053772	      0.35665214	    -16.78211750	      7.91654443	      0.24314603	    -10.85948079	      7.51598733	    -10.44407815	     -0.33715383	     17.15384804	     -1.25133980	     -2.06106179	      0.66485451	     -0.75707634	     -2.35926636	     -4.48669831	      1.45369769	      7.31552414	      0.22961219
      1.10000000	      1.87364177	     -3.91187161	     -2.10085519	     -0.08850630	      1.05049380	      0.35645823	    -16.71508841	      7.83189730	      0.18870575	    -11.70301610	      7.42538909	    -10.44823742	     -0.32811849	     17.02023357	     -1.18373055	     -2.00526814	      0.29665255	     -0.85914764	     -2.39074863	     -4.47559526	      1.48051899	      7.19387387	      0.23812310
      1.10416667	      1.83427707	     -3.74845146	     -1.98322051	     -0.08228943	      1.05037951	      0.35584754	    -16.54788025	      7.60820271	     -0.32264774	    -12.57677920	      7.09813120	     -9.95874203	     -0.22906591	     16.92846697	     -0.93309859	     -1.83051632	      0.01071329	     -1.64715853	     -2.85594252	     -4.37631654	      1.59531997	      6.98628259	      0.19572375
      1.10833333	      1.82581849	     -3.64667742	     -1.95564038	     -0.07641362	      1.05039597	      0.35550880	    -16.36840219	      7.44025648	     -0.56263156	    -13.53830506	      6.95190198	     -9.88344844	     -0.19594694	     16.83458396	     -0.80076826	     -1.81021358	     -0.37488582	     -1.83567108	     -3.00749114	     -4.34402202	      1.52156775	      6.81146949	      0.18610027
      1.11250000	      1.84717924	     -3.48375053	     -1.83288792	     -0.07028599	      1.05047637	      0.35485626	    -16.21720984	      7.19944222	     -1.02041752	    -14.49399396	      6.59046297	     -9.23899091	     -0.04363037	     16.66830102	     -0.56007897	     -1.49355539	     -0.66671296	     -2.55286817	     -3.57098954	     -4.21566071	      1.72415021	      6.60670720	      0.11549710
      1.11666667	      1.88617454	     -3.36624397	     -1.72811517	     -0.06443553	      1.05062167	      0.35435458	    -16.03272630	      7.01416289	     -1.41067449	    -15.53688607	      6.34383444	     -9.04522784	      0.03399025	     16.55190730	     -0.39387743	     -1.50364938	     -1.10788297	     -2.80257126	     -3.81935118	     -4.15388077	      1.67664007	      6.39067925	      0.09609614
      1.12083333	      1.89625249	     -3.18736452	     -1.73481545	     -0.05837757	      1.05086058	      0.35389580	    -15.79527317	      6.71274535	     -1.73797558	    -16.64007473	      6.04425042	     -8.88424341	      0.07838869	     16.39209806	     -0.18873420	     -1.42910913	     -1.44621779	     -3.03322738	     -3.88462730	     -4.12212855	      1.62055096	      6.22716942	      0.08455336
